<?xml version="1.0" encoding="iso-8859-1"?>
<!-- Generator: Adobe Illustrator 17.1.0, SVG Export Plug-In . SVG Version: 6.00 Build 0)  -->
<!DOCTYPE svg PUBLIC "-//W3C//DTD SVG 1.1//EN" "http://www.w3.org/Graphics/SVG/1.1/DTD/svg11.dtd">
<svg xmlns="http://www.w3.org/2000/svg" xmlns:xlink="http://www.w3.org/1999/xlink" version="1.1" id="Capa_1" x="0px" y="0px" viewBox="0 0 511 511" style="enable-background:new 0 0 511 511;" xml:space="preserve" width="512px" height="512px">
<g>
	<path d="M71.5,380c-4.142,0-7.5,3.358-7.5,7.5c0,4.687-3.813,8.5-8.5,8.5s-8.5-3.813-8.5-8.5s3.813-8.5,8.5-8.5   c4.142,0,7.5-3.358,7.5-7.5s-3.358-7.5-7.5-7.5C42.542,364,32,374.542,32,387.5S42.542,411,55.5,411S79,400.458,79,387.5   C79,383.358,75.642,380,71.5,380z" fill="#b6321c"/>
	<path d="M319.5,372c-4.142,0-7.5,3.358-7.5,7.5c0,9.098-7.402,16.5-16.5,16.5s-16.5-7.402-16.5-16.5s7.402-16.5,16.5-16.5   c4.142,0,7.5-3.358,7.5-7.5s-3.358-7.5-7.5-7.5c-17.369,0-31.5,14.131-31.5,31.5s14.131,31.5,31.5,31.5s31.5-14.131,31.5-31.5   C327,375.358,323.642,372,319.5,372z" fill="#b6321c"/>
	<path d="M503.5,396h-120c-0.276,0-0.5-0.224-0.5-0.5v-136c0-8.547-6.953-15.5-15.5-15.5H351V83.5c0-8.547-6.953-15.5-15.5-15.5h-48   c-4.142,0-7.5,3.358-7.5,7.5s3.358,7.5,7.5,7.5H304v209.42c-2.809-0.269-5.642-0.42-8.5-0.42c-2.868,0-5.702,0.143-8.5,0.414   v-40.34c0-6.923-1.83-13.752-5.292-19.749l-58.9-102.024C216.249,116.743,202.327,108,187.25,108H71.5   C58.542,108,48,118.542,48,131.5V268h-8.5C22.131,268,8,282.131,8,299.5v56c0,0.91,0.17,1.779,0.468,2.586   C3.111,366.621,0,376.701,0,387.5C0,418.103,24.897,443,55.5,443c25.223,0,46.555-16.919,53.281-40h108.261   c0.017,0,0.033,0.002,0.05,0.002c0.015,0,0.029-0.002,0.044-0.002h19.39c9.363,23.411,32.26,40,58.973,40   c35.014,0,63.5-28.486,63.5-63.5c0-11.232-2.944-21.785-8.082-30.949c0.048-0.344,0.082-0.693,0.082-1.051v-31.607   c0.013-0.252,0.012-0.505,0-0.756V259h16.5c0.276,0,0.5,0.224,0.5,0.5v136c0,8.547,6.953,15.5,15.5,15.5h120   c4.142,0,7.5-3.358,7.5-7.5S507.642,396,503.5,396z M335.5,83c0.276,0,0.5,0.224,0.5,0.5V244h-17V83H335.5z M209.391,137.012   c0.087,0.183,0.181,0.363,0.283,0.539L266.51,236H151v-88.5c0-4.142-3.358-7.5-7.5-7.5s-7.5,3.358-7.5,7.5V236h-16.5   c-9.098,0-16.5-7.402-16.5-16.5V123h84.25C196.668,123,205.359,128.5,209.391,137.012z M63,131.5c0-4.687,3.813-8.5,8.5-8.5H88   v96.5c0,17.369,14.131,31.5,31.5,31.5h152c0.157,0,0.31-0.014,0.464-0.023c0.016,0.365,0.036,0.731,0.036,1.097v43.135   c-10.341,2.887-19.914,7.63-28.339,13.846l-24.799-24.8C208.379,273.773,194.442,268,179.618,268H63V131.5z M55.5,428   C33.168,428,15,409.832,15,387.5S33.168,347,55.5,347S96,365.168,96,387.5S77.832,428,55.5,428z M55.5,332   c-12.131,0-23.357,3.923-32.5,10.552V299.5c0-9.098,7.402-16.5,16.5-16.5h140.118c10.818,0,20.988,4.213,28.638,11.862   l24.114,24.114C217.284,334.704,208,356.038,208,379.5c0,2.84,0.144,5.679,0.417,8.5h-97.429c0.001-0.167,0.013-0.332,0.013-0.5   C111,356.897,86.103,332,55.5,332z M223.514,388c-0.328-2.815-0.514-5.655-0.514-8.5c0-39.977,32.523-72.5,72.5-72.5   c14.602,0,28.523,4.271,40.5,12.368v11.264C325,321.5,310.881,316,295.5,316c-35.014,0-63.5,28.486-63.5,63.5   c0,2.884,0.211,5.717,0.585,8.5H223.514z M295.5,428c-26.743,0-48.5-21.757-48.5-48.5s21.757-48.5,48.5-48.5s48.5,21.757,48.5,48.5   S322.243,428,295.5,428z M336,301.905c-5.429-2.847-11.121-5.086-17-6.718V259h17V301.905z" fill="#b6321c"/>
</g>
<g>
</g>
<g>
</g>
<g>
</g>
<g>
</g>
<g>
</g>
<g>
</g>
<g>
</g>
<g>
</g>
<g>
</g>
<g>
</g>
<g>
</g>
<g>
</g>
<g>
</g>
<g>
</g>
<g>
</g>
</svg>
